# xmcd CD database file
#
# Track frame offsets:
#	182
#	80350
#	125400
#
# Disc length: 2832 seconds
#
# Revision: 0
# Processed by: cddbd v1.5.1PL0 Copyright (c) Steve Scherf et al.
# Submitted via: CDex 1.51
#
DISCID=1b0b0e03
DTITLE=The Gil Evans Orchestra featuring John McLaughlin - We Remember Jimi... disc2
DYEAR=1900
DGENRE=Jazz
TTITLE0=Bud and Bird
TTITLE1=Goodbye Pork-Pie Hat
TTITLE2=Eleven
EXTD=
EXTT0=
EXTT1=
EXTT2=
PLAYORDER=
